<svg id="圖層_2" data-name="圖層 2" xmlns="http://www.w3.org/2000/svg" viewBox="0 0 595.28 841.89"><defs><style>.cls-1{fill:#f6bf53;}.cls-2{fill:#80622a;}.cls-3{fill:#80ccdd;}.cls-4{fill:#eec57e;}.cls-5{fill:#be302e;}.cls-6{fill:#f8cd82;}.cls-7{fill:#b8842a;}.cls-8{fill:#fff;}</style></defs><title>iron</title><rect class="cls-1" x="79.22" y="256.65" width="372.15" height="372.15" rx="84.91"/><path class="cls-2" d="M108.15,366.34s142.7,77.85,313.8,0l17.8,35.93a11.06,11.06,0,0,1-4.07,14.29l-41,25.46a36.2,36.2,0,0,1-19.1,5.45H332.76a17.5,17.5,0,0,1-17.17-14.13l-2.44-12.4s-47.35,9.85-97.25,0l-2.4,12a13.06,13.06,0,0,1-11.85,10.46l-47.77,3.44a25.17,25.17,0,0,1-15.11-3.74l-43-26.75a12.21,12.21,0,0,1-4.51-15.74Z"/><path class="cls-3" d="M318.44,416.09l3.94,20.31a7.8,7.8,0,0,0,7.66,6.32h51.59a15,15,0,0,0,8.26-2.46l39.38-25.71a9.7,9.7,0,0,0,3.28-12.64L422,381.8S380.66,407,318.44,416.09Z"/><path class="cls-3" d="M209.37,413.09l-3.93,20.31a7.81,7.81,0,0,1-7.67,6.32H146.18a15.16,15.16,0,0,1-8.26-2.46L98.55,411.54a9.69,9.69,0,0,1-3.28-12.63l10.59-20.12S147.16,404,209.37,413.09Z"/><path class="cls-4" d="M437,294.34l-14.48,63.94a24.24,24.24,0,0,0,2.28,16.85l26.53,49.5V341.55S450.05,309.54,437,294.34Z"/><path class="cls-4" d="M93.22,294.34l14.49,63.94a24.29,24.29,0,0,1-2.29,16.85l-26.53,49.5V341.55S80.21,309.54,93.22,294.34Z"/><polygon class="cls-5" points="211.56 256.65 220.35 324.28 310.25 324.28 318.37 256.65 211.56 256.65"/><path class="cls-5" d="M84.45,312.14,93,353.33A27.3,27.3,0,0,1,91.25,370L79.79,395.74S77,328.59,84.45,312.14Z"/><path class="cls-5" d="M446.19,312.14l-8.58,41.19A27.3,27.3,0,0,0,439.39,370l11.46,25.78S453.66,328.59,446.19,312.14Z"/><path class="cls-6" d="M79.22,470.3S174.47,531,188.84,627.9H151.76S93.05,488.06,79.22,470.3Z"/><path class="cls-7" d="M450.47,470.3S355.22,531,340.84,627.9h37.08S436.63,488.06,450.47,470.3Z"/><path class="cls-8" d="M321.48,419.13,324,434a5.56,5.56,0,0,0,5.36,4.62l51,1.07a8.06,8.06,0,0,0,4.46-1.24l43.22-27.31a5.65,5.65,0,0,0,2.08-7.18L422,386.65S379.15,408.51,321.48,419.13Z"/><path class="cls-8" d="M206.34,416.13,203.77,431a5.55,5.55,0,0,1-5.36,4.62l-51,1.06a7.94,7.94,0,0,1-4.46-1.24l-43.21-27.3A5.65,5.65,0,0,1,97.68,401l8.18-17.34S148.67,405.5,206.34,416.13Z"/><path class="cls-5" d="M450.47,470.3s-66.75,67.42-72.55,157.6c0,0,72.55-10.42,72.55-84Z"/><path class="cls-5" d="M79.22,470.3S146,537.72,151.76,627.9c0,0-72.54-10.42-72.54-84Z"/></svg>